<svg xmlns="http://www.w3.org/2000/svg" width="1200" height="630" viewBox="0 0 1200 630"><defs><linearGradient id="bg" x1="0" y1="0" x2="1" y2="1"><stop stop-color="#050b18"/><stop offset=".58" stop-color="#08265c"/><stop offset="1" stop-color="#1601ad"/></linearGradient><radialGradient id="glow"><stop stop-color="#2563eb" stop-opacity=".75"/><stop offset="1" stop-color="#2563eb" stop-opacity="0"/></radialGradient><pattern id="grid" width="54" height="54" patternUnits="userSpaceOnUse"><path d="M54 0H0V54" fill="none" stroke="#fff" stroke-opacity=".05"/></pattern></defs><rect width="1200" height="630" fill="url(#bg)"/><rect width="1200" height="630" fill="url(#grid)"/><circle cx="1010" cy="90" r="420" fill="url(#glow)"/><g transform="translate(70 66)"><rect width="78" height="78" rx="22" fill="#1d4ed8"/><path d="M21 21v36M21 39h18M39 19v40M39 42h18M57 19v40" fill="none" stroke="#fff" stroke-width="6" stroke-linecap="round"/><circle cx="61" cy="15" r="5" fill="#7dd3fc"/></g><text x="170" y="120" font-family="Arial, sans-serif" font-weight="800" font-size="48" fill="#fff">Gastro<tspan fill="#60a5fa">Help</tspan></text><text x="72" y="265" font-family="Arial, sans-serif" font-weight="800" font-size="70" fill="#fff">El sistema conectado</text><text x="72" y="345" font-family="Arial, sans-serif" font-weight="800" font-size="70" fill="#fff">para restaurantes.</text><text x="76" y="430" font-family="Arial, sans-serif" font-size="29" fill="#bfdbfe">Reservas · clientes · fidelización · sala · rentabilidad</text><rect x="72" y="492" width="316" height="72" rx="20" fill="#fff"/><text x="112" y="538" font-family="Arial, sans-serif" font-weight="700" font-size="25" fill="#1601ad">Probar panel demo ↗</text><g transform="translate(810 225)"><rect width="315" height="230" rx="28" fill="#fff" fill-opacity=".08" stroke="#fff" stroke-opacity=".18"/><rect x="24" y="28" width="110" height="54" rx="14" fill="#fff"/><rect x="151" y="28" width="140" height="54" rx="14" fill="#fff"/><rect x="24" y="100" width="267" height="105" rx="16" fill="#fff"/><path d="M48 177V143M84 177V126M120 177V152M156 177V112M192 177V136M228 177V119M264 177V102" stroke="#2563eb" stroke-width="17" stroke-linecap="round"/></g></svg>